<?xml version="1.0" encoding="UTF-8"?>
<svg width="256" height="256" data-name="Layer 1" version="1.1" viewBox="0 0 256 256" xml:space="preserve" xmlns="http://www.w3.org/2000/svg" xmlns:cc="http://creativecommons.org/ns#" xmlns:dc="http://purl.org/dc/elements/1.1/" xmlns:rdf="http://www.w3.org/1999/02/22-rdf-syntax-ns#" ml-update="aware"><metadata><rdf:RDF><cc:Work rdf:about=""><dc:format>image/svg+xml</dc:format><dc:type rdf:resource="http://purl.org/dc/dcmitype/StillImage"/><dc:title>Logo</dc:title></cc:Work></rdf:RDF></metadata><defs><style>.cls-1{fill:#d5d5d5;}.cls-2{fill:#e23229;}</style></defs><title>Logo</title><g><path d="m219.08 21.666-76.242 5.332-17.305 83.197 49.24-3.4414-8.0703 37.658-22.045 1.5527 4.9551-23.225-27.188 1.8945-10.717 50.607 76.23-5.3223 19.365-92.428-49.24 3.4414 5.9746-28.438 22.246-1.5547-3.8848 18.822 26.973-1.8867 9.707-46.211zm-90.783 6.3477-76.279 5.334-17.268 83.186 49.24-3.4414-8.0391 37.65-22.045 1.5547 4.9395-23.211-27.188 1.8945-10.711 50.6 76.229-5.3223 19.361-92.42-49.24 3.4414 5.9727-28.445 22.248-1.5527-3.8848 18.789 26.994-1.8789 9.6699-46.178z" fill="#5bcefa"/><path d="m213.33 49.055-27.043 1.8887-3.8848 18.82 26.975-1.8867 3.9531-18.822zm-49.289 3.4414-26.896 1.8789-11.609 55.82 49.24-3.4414-8.0566 37.592 26.979-1.9004 13.609-64.953-49.24 3.4414 5.9746-28.438zm-41.475 2.8965-27.047 1.8887-3.8848 18.789 26.994-1.8789 3.9375-18.799zm-49.295 3.4414-26.934 1.8809-11.586 55.818 49.24-3.4414-8.0391 37.65 26.969-1.9004 13.617-65.004-49.24 3.4414 5.9727-28.445zm76.344 63.906-27.188 1.8945-4.9082 23.178 27.154-1.9121 4.9414-23.16zm-90.768 6.3457-27.188 1.8945-4.918 23.23 27.166-1.9141 4.9395-23.211z" fill="#f5a9b8"/><path d="m207.31 77.496-76.076 5.3164-5.6934 27.377 76.033-5.3144 5.7363-27.379zm-90.768 6.3438-76.105 5.3184-5.6816 27.375 31.451-2.1973 17.789-1.2441 26.811-1.873 5.7363-27.379z" fill="#fff"/></g><g transform="matrix(.77677 0 0 .77677 20.941 54.446)"><g fill="#e23229"><path class="cls-2" d="m109.24 253.61 41.87-200.64-59.68 4.17-7.36 35 25.46-1.78-34.52 165.64z"/><path class="cls-2" d="m248.01 141.4 20.16-96.62-26.09 1.92-95.51 112.14-5.07 24.16 65.06-4.5-14.45 69.34 34.23-2.39 14.45-69.24 27.61-1.89 7.24-34.78zm-32.83 5.11-20.11 1.38 26-29.61z"/></g></g></svg>